<svg xmlns="http://www.w3.org/2000/svg" width="12.592" height="24.927" viewBox="0 0 12.592 24.927">
  <path id="facebook" d="M127.084,13.276h2.732V24.525a.4.4,0,0,0,.4.4h4.633a.4.4,0,0,0,.4-.4v-11.2h3.141a.4.4,0,0,0,.4-.356l.477-4.141a.4.4,0,0,0-.4-.448h-3.618v-2.6c0-.783.421-1.179,1.252-1.179h2.366a.4.4,0,0,0,.4-.4V.405a.4.4,0,0,0-.4-.4h-3.26c-.023,0-.074,0-.149,0a6.248,6.248,0,0,0-4.085,1.54,4.284,4.284,0,0,0-1.425,3.808V8.384h-2.868a.4.4,0,0,0-.4.4v4.088A.4.4,0,0,0,127.084,13.276Z" transform="translate(-126.682)" fill="#fff"/>
</svg>
