<svg xmlns="http://www.w3.org/2000/svg" width="22.823" height="23.476" viewBox="0 0 22.823 23.476">
  <g id="google-plus-logo" transform="translate(-1.345)">
    <g id="Group_19" data-name="Group 19" transform="translate(1.345)">
      <path id="Path_16" data-name="Path 16" d="M16.2,0H10.6A8.368,8.368,0,0,0,4.826,1.831a5.527,5.527,0,0,0-1.952,4.1,4.834,4.834,0,0,0,5.07,4.808c.317,0,.667-.032.977-.061l-.046.111a2.544,2.544,0,0,0-.258,1.083,3.079,3.079,0,0,0,.863,2.012l.053.069-.095.007a13.033,13.033,0,0,0-5.74,1.4A4.392,4.392,0,0,0,1.345,19.1c0,2.179,2.031,4.379,6.568,4.379,5.276,0,8.036-2.911,8.036-5.786,0-2.127-1.246-3.176-2.57-4.291l-1.116-.868a1.651,1.651,0,0,1-.775-1.3A2.077,2.077,0,0,1,12.3,9.777l.04-.04c1.206-.95,2.572-2.026,2.572-4.355a5.134,5.134,0,0,0-2.167-4.133H14.6a.118.118,0,0,0,.064-.019l1.6-1.006A.121.121,0,0,0,16.2,0ZM9.411,22.193c-3.216,0-5.377-1.5-5.377-3.738,0-1.46.884-2.521,2.624-3.151a12.341,12.341,0,0,1,3.211-.492,4.937,4.937,0,0,1,.7.031c2.25,1.6,3.332,2.442,3.332,4.044C13.9,20.926,12.182,22.193,9.411,22.193ZM9.381,9.881c-2.7,0-3.819-3.548-3.819-5.447a3.478,3.478,0,0,1,.672-2.267,2.83,2.83,0,0,1,2.14-1.01c2.478,0,3.848,3.331,3.848,5.633a3.138,3.138,0,0,1-.763,2.235A3.131,3.131,0,0,1,9.381,9.881Z" transform="translate(-1.345)" fill="#fff"/>
      <path id="Path_17" data-name="Path 17" d="M71.491,35.659h-2.95v-2.94a.121.121,0,0,0-.121-.121H67.151a.121.121,0,0,0-.121.121v2.94H64.094a.121.121,0,0,0-.121.121v1.286a.121.121,0,0,0,.121.121H67.03v2.959a.121.121,0,0,0,.121.121H68.42a.122.122,0,0,0,.121-.121V37.187h2.95a.121.121,0,0,0,.121-.121V35.78A.121.121,0,0,0,71.491,35.659Z" transform="translate(-48.789 -24.695)" fill="#fff"/>
    </g>
  </g>
</svg>
