<svg xmlns="http://www.w3.org/2000/svg" width="16.776" height="23.952" viewBox="0 0 16.776 23.952">
  <g id="placeholder" transform="translate(-8.203)">
    <path id="Path_8" data-name="Path 8" d="M23.619,12a3.062,3.062,0,1,0,3.062,3.062A3.066,3.066,0,0,0,23.619,12Zm0,5.249a2.187,2.187,0,1,1,2.187-2.187A2.19,2.19,0,0,1,23.619,17.249Z" transform="translate(-6.95 -6.751)" fill="#fff"/>
    <path id="Path_9" data-name="Path 9" d="M22.523,2.457a8.388,8.388,0,0,0-11.863,0,9.555,9.555,0,0,0-.789,11.79l6.721,9.706L23.3,14.26A9.558,9.558,0,0,0,22.523,2.457Zm.07,11.292-6,8.666-6.011-8.68a8.633,8.633,0,0,1,.7-10.66,7.513,7.513,0,0,1,10.626,0A8.636,8.636,0,0,1,22.592,13.749Z" transform="translate(0 0)" fill="#fff"/>
  </g>
</svg>
