<svg id="instagram-logo" xmlns="http://www.w3.org/2000/svg" width="22" height="22" viewBox="0 0 22 22">
  <g id="post-instagram">
    <path id="Path_15" data-name="Path 15" d="M19.8,0H2.2A2.206,2.206,0,0,0,0,2.2V19.8A2.206,2.206,0,0,0,2.2,22H19.8A2.206,2.206,0,0,0,22,19.8V2.2A2.206,2.206,0,0,0,19.8,0ZM11,6.6A4.4,4.4,0,1,1,6.6,11,4.413,4.413,0,0,1,11,6.6ZM2.75,19.8a.52.52,0,0,1-.55-.55V9.9H4.51A3.742,3.742,0,0,0,4.4,11a6.6,6.6,0,1,0,13.2,0,3.742,3.742,0,0,0-.11-1.1H19.8v9.35a.52.52,0,0,1-.55.55ZM19.8,4.95a.52.52,0,0,1-.55.55h-2.2a.52.52,0,0,1-.55-.55V2.75a.52.52,0,0,1,.55-.55h2.2a.52.52,0,0,1,.55.55Z" fill="#fdfdfd"/>
  </g>
</svg>
