<svg xmlns="http://www.w3.org/2000/svg" width="130.832" height="130.832" viewBox="0 0 130.832 130.832">
  <path id="SvgjsPath1001" d="M0,65.213V56.437a2.491,2.491,0,0,1,.675-1.62Q27.814,27.881,54.952.675A2.491,2.491,0,0,1,56.572,0H74.259a2.377,2.377,0,0,1,1.755.81c18.092,17.957,36.05,36.05,54.007,54.007a4.185,4.185,0,0,1,.81,1.755V74.259a2.377,2.377,0,0,1-.81,1.755L76.015,130.021a4.185,4.185,0,0,1-1.755.81H56.572a2.377,2.377,0,0,1-1.755-.81C36.725,112.064,18.767,93.972.81,76.015A2.076,2.076,0,0,1,0,74.124V65.213ZM65.483,32.4,32.539,65.348,65.483,98.292,98.427,65.348C87.356,54.412,76.42,43.34,65.483,32.4ZM5,56.032,56.3,107.339c1.89-1.89,3.916-3.916,6.211-6.076L17.282,56.032,69.264,4.051h-10.8A2.518,2.518,0,0,0,56.3,5Q30.986,30.109,5.941,55.357c-.405.27-.675.54-.945.675ZM74.664,5,23.358,56.3l6.076,6.076C44.421,47.526,59.408,32.4,74.664,17.282l51.982,51.982V58.327a2.518,2.518,0,0,0-.945-2.16C109.094,39.425,92.217,22.683,75.475,5.941c-.27-.27-.54-.675-.81-.945ZM61.3,126.781H72.369a3.31,3.31,0,0,0,2.16-.81L125.161,75.34c.27-.27.54-.54.54-.675L74.529,23.493,68.319,29.7l45.1,45.1C96.132,91.947,78.85,109.229,61.3,126.781Zm-5.131-13.1L4.051,61.568V72.5a3.8,3.8,0,0,0,.81,2.025q25.316,25.316,50.5,50.631l.675.675,51.306-51.306c-1.89-1.89-3.916-4.051-6.076-6.076q-22.278,22.278-45.1,45.231Z" fill="#ffd445"/>
</svg>
