<svg xmlns="http://www.w3.org/2000/svg" width="76.017" height="78.2" viewBox="0 0 76.017 78.2">
  <g id="like_1_" data-name="like (1)" transform="translate(-6.675)">
    <path id="Path_20" data-name="Path 20" d="M80.411,53.164a9.714,9.714,0,0,0,2.273-6.492,9.974,9.974,0,0,0-2.126-5.625,8.74,8.74,0,0,0-2.077-10.057c-2.6-2.371-7.015-3.434-13.131-3.14a51.32,51.32,0,0,0-8.046,1.03h-.016c-.818.147-1.684.327-2.567.523-.065-1.047.114-3.647,2.044-9.5,2.289-6.966,2.159-12.3-.425-15.862A10.4,10.4,0,0,0,48.015,0a4.107,4.107,0,0,0-3.156,1.439c-1.815,2.11-1.6,6-1.374,7.8-2.159,5.789-8.209,19.983-13.328,23.924a1.75,1.75,0,0,0-.262.229A17.567,17.567,0,0,0,26.691,38.2a6.748,6.748,0,0,0-3.238-.818H13.478a6.808,6.808,0,0,0-6.8,6.8V70.759a6.808,6.808,0,0,0,6.8,6.8h9.975a6.789,6.789,0,0,0,3.925-1.243l3.843.458a164.647,164.647,0,0,0,21.8,1.194c1.946.147,3.778.229,5.478.229a36.691,36.691,0,0,0,7.6-.687c5-1.063,8.422-3.189,10.155-6.312a10.009,10.009,0,0,0,1.112-6.263,10.431,10.431,0,0,0,3.712-8.487A11.046,11.046,0,0,0,80.411,53.164ZM13.478,73.147a2.39,2.39,0,0,1-2.388-2.388V44.169a2.39,2.39,0,0,1,2.388-2.388h9.975a2.39,2.39,0,0,1,2.388,2.388V70.743a2.39,2.39,0,0,1-2.388,2.388H13.478Zm62.746-21.9a2.2,2.2,0,0,0-.294,2.666,6.8,6.8,0,0,1,.752,2.731c.114,2.142-.916,4.039-3.074,5.658a2.228,2.228,0,0,0-.752,2.518,5.775,5.775,0,0,1-.442,4.219c-1.1,1.962-3.532,3.369-7.228,4.154a43.081,43.081,0,0,1-11.921.36h-.229a161.418,161.418,0,0,1-21.259-1.161H31.76l-1.652-.2a6.928,6.928,0,0,0,.147-1.439V44.169a6.918,6.918,0,0,0-.311-2.028,13.668,13.668,0,0,1,3.042-5.609c7.342-5.822,14.521-25.462,14.832-26.312a2.07,2.07,0,0,0,.1-1.1c-.278-1.832-.18-4.072.213-4.742A5.867,5.867,0,0,1,52.741,6.59c1.668,2.306,1.6,6.427-.2,11.889-2.747,8.324-2.976,12.706-.8,14.636a3.564,3.564,0,0,0,3.565.638c1-.229,1.946-.425,2.845-.572.065-.016.147-.033.213-.049,5.02-1.1,14.015-1.766,17.138,1.079,2.649,2.42.769,5.625.556,5.969a2.187,2.187,0,0,0,.392,2.845,6.2,6.2,0,0,1,1.815,3.81A6.073,6.073,0,0,1,76.224,51.25Z"/>
  </g>
</svg>
