<svg xmlns="http://www.w3.org/2000/svg" width="23.44" height="19.498" viewBox="0 0 23.44 19.498">
  <path id="twitter" d="M23.067,36.759a9.282,9.282,0,0,1-1.616.545,5.039,5.039,0,0,0,1.33-2.118h0a.264.264,0,0,0-.386-.308h0A9.326,9.326,0,0,1,19.924,35.9a.63.63,0,0,1-.154.019.655.655,0,0,1-.433-.165,5.053,5.053,0,0,0-3.344-1.262,5.4,5.4,0,0,0-1.6.247,4.9,4.9,0,0,0-3.3,3.527,5.391,5.391,0,0,0-.12,1.861.181.181,0,0,1-.046.142.187.187,0,0,1-.139.063H10.77a13.251,13.251,0,0,1-9.107-4.866h0a.264.264,0,0,0-.433.034h0a5.059,5.059,0,0,0,.822,6.143A4.529,4.529,0,0,1,.9,41.2h0a.264.264,0,0,0-.392.228h0a5.06,5.06,0,0,0,2.951,4.662H3.35A4.547,4.547,0,0,1,2.5,46h0a.264.264,0,0,0-.3.34h0a5.065,5.065,0,0,0,4,3.445A9.325,9.325,0,0,1,.975,51.376H.391a.387.387,0,0,0-.378.292.4.4,0,0,0,.192.442,13.87,13.87,0,0,0,6.97,1.879,14.06,14.06,0,0,0,5.956-1.264,13.152,13.152,0,0,0,4.358-3.266,14.317,14.317,0,0,0,2.668-4.469,14.118,14.118,0,0,0,.907-4.891v-.077a.86.86,0,0,1,.322-.669,9.988,9.988,0,0,0,2.009-2.205h0a.264.264,0,0,0-.327-.388Z" transform="translate(0 -34.491)" fill="#fff"/>
</svg>
