<svg id="user_2_" data-name="user (2)" xmlns="http://www.w3.org/2000/svg" width="32.349" height="32.354" viewBox="0 0 32.349 32.354">
  <path id="Path_1" data-name="Path 1" d="M16.177,0a16.177,16.177,0,0,0,0,32.354q.731,0,1.456-.065c.449-.04.894-.1,1.336-.179l.17-.03A16.177,16.177,0,0,0,16.177,0Zm-1.3,31.218h-.038c-.419-.037-.836-.093-1.248-.165l-.071-.011q-.605-.108-1.2-.266l-.1-.024c-.385-.1-.767-.226-1.142-.361l-.117-.041c-.368-.135-.73-.287-1.086-.451-.044-.02-.088-.039-.133-.06-.349-.162-.692-.344-1.028-.536l-.143-.08q-.5-.289-.971-.618l-.144-.1c-.311-.221-.615-.456-.911-.7l-.081-.071V23.187A5.939,5.939,0,0,1,12.4,17.255h7.549a5.939,5.939,0,0,1,5.932,5.932v4.547l-.072.06q-.452.378-.929.715l-.127.087q-.481.334-.986.629l-.127.072c-.341.194-.688.377-1.041.542-.041.019-.081.037-.122.054-.359.166-.724.318-1.1.454l-.108.038c-.378.135-.76.258-1.148.363l-.093.023c-.4.1-.8.195-1.2.267l-.07.011c-.413.072-.83.128-1.25.166h-.038c-.431.037-.863.057-1.3.057S15.308,31.255,14.877,31.218Zm12.084-4.484V23.187a7.018,7.018,0,0,0-7.01-7.01H12.4a7.018,7.018,0,0,0-7.01,7.01v3.547a15.1,15.1,0,1,1,21.569,0Zm0,0" fill="#fff"/>
  <path id="Path_2" data-name="Path 2" d="M165.392,64a5.392,5.392,0,1,0,5.392,5.392A5.392,5.392,0,0,0,165.392,64Zm0,9.706a4.314,4.314,0,1,1,4.314-4.314A4.314,4.314,0,0,1,165.392,73.706Zm0,0" transform="translate(-149.215 -59.686)" fill="#fff"/>
</svg>
